<svg id='New_Store_24' width='24' height='24' viewBox='0 0 24 24' xmlns='http://www.w3.org/2000/svg' xmlns:xlink='http://www.w3.org/1999/xlink'><rect width='24' height='24' stroke='none' fill='#000000' opacity='0'/>


<g transform="matrix(0.43 0 0 0.43 12 12)" >
<path style="stroke: none; stroke-width: 1; stroke-dasharray: none; stroke-linecap: butt; stroke-dashoffset: 0; stroke-linejoin: miter; stroke-miterlimit: 4; fill: rgb(0,0,0); fill-rule: nonzero; opacity: 1;" transform=" translate(-26.5, -27)" d="M 6 4 C 5.447738123791541 4.0000552179053495 5.000055217905349 4.447738123791542 5 5.000000000000001 L 5 8.8574219 C 4.9598285 8.9910122 4.5208315 10.450159 4.0410156 12.087891 C 3.7903729 12.943397 3.5393498 13.811635 3.3496094 14.492188 C 3.2547394 14.832463 3.1753346 15.12478 3.1171875 15.353516 C 3.0881145 15.467884 3.0639299 15.56438 3.0449219 15.652344 C 3.0259144 15.740307 3 15.738159 3 16 C 3 17.035331 3.4093745 17.97469 4.0625 18.6875 C 4.029105 18.787304 4 18.888866 4 19 L 4 45 C 4 45.553 4.448 46 5 46 L 24.832031 46 C 24.940022437464606 46.017849048052845 25.050211562535395 46.017849048052845 25.158203 46 L 29.617188 46 C 29.251188 45.367 28.945266 44.699 28.697266 44 L 26 44 L 26 25 L 38 25 L 38 28.179688 C 38.652 28.069688 39.317 28 40 28 L 40 24 C 40 23.447 39.552 23 39 23 L 25.154297 23 C 25.098148679028935 22.990614857826948 25.041301552875996 22.986040912671154 24.984375 22.986328 C 24.935930404634988 22.987377970550263 24.887626171553162 22.991947339576246 24.839844 23 L 11 23 C 10.448 23 10 23.447 10 24 L 10 44 L 6 44 L 6 19.855469 C 6.3217694 19.939834 6.6530011 20 7 20 C 8.1971509 20 9.2648452 19.453795 10 18.611328 C 10.735155 19.453795 11.802849 20 13 20 C 14.197151 20 15.264845 19.453795 16 18.611328 C 16.735155 19.453795 17.802849 20 19 20 C 20.197151 20 21.264845 19.453795 22 18.611328 C 22.735155 19.453795 23.802849 20 25 20 C 26.197151 20 27.264845 19.453795 28 18.611328 C 28.735155 19.453795 29.802849 20 31 20 C 32.197151 20 33.264845 19.453795 34 18.611328 C 34.735155 19.453795 35.802849 20 37 20 C 38.197151 20 39.264845 19.453795 40 18.611328 C 40.735155 19.453795 41.802849 20 43 20 C 43.346999 20 43.678231 19.939834 44 19.855469 L 44 28.697266 C 44.699 28.945266 45.367 29.251187 46 29.617188 L 46 19 C 46 18.888866 45.970895 18.787304 45.9375 18.6875 C 46.590626 17.97469 47 17.035331 47 16 C 47 15.738159 46.974088 15.740307 46.955078 15.652344 C 46.936068 15.564384 46.911893 15.467884 46.882812 15.353516 C 46.824669 15.12478 46.745261 14.832462 46.650391 14.492188 C 46.46065 13.811635 46.209627 12.943397 45.958984 12.087891 C 45.479169 10.450159 45.040171 8.9910122 45 8.8574219 L 45 5 C 44.99994478209465 4.447738123791541 44.55226187620846 4.0000552179053495 44 4 L 6 4 z M 7 6 L 43 6 L 43 8 L 7 8 L 7 6 z M 6.7460938 10 L 43.253906 10 C 43.402984 10.497445 43.647985 11.30888 44.041016 12.650391 C 44.290373 13.501509 44.53935 14.364817 44.724609 15.029297 C 44.817239 15.361537 44.894087 15.644185 44.945312 15.845703 C 44.965494 15.925103 44.977251 15.979131 44.988281 16.027344 C 44.971365 17.12863 44.105831 18 43 18 C 41.883334 18 41 17.116666 41 16 C 41.00265244212882 15.459451752315033 40.575304516060264 15.0146218395707 40.035084151322614 14.995611288624984 C 39.49486378658497 14.97660073767927 39.03730424346033 15.390290435016302 39.001953 15.929688 C 39.00047774816013 15.953095182726008 38.99982634538129 15.976547016922508 39 16 C 39 17.116666 38.116666 18 37 18 C 35.883334 18 35 17.116666 35 16 C 35.000354602542316 15.96675271394456 34.99905098357362 15.9335084277558 34.996094 15.900391 C 34.97860620636725 15.699844978970628 34.90100458021311 15.509244279671956 34.773438 15.353516 C 34.773438636289185 15.352864666822065 34.773438636289185 15.352213333177934 34.773438 15.351562 C 34.68832043087744 15.248436792570999 34.583387077304124 15.163427562341871 34.464844 15.101562 C 34.4356281530088 15.085756182281875 34.40564298559231 15.071415740254007 34.375 15.058594 C 34.281967271211904 15.02135634571403 34.18386629281576 14.99831231073602 34.083984 14.990234 C 34.01767848730151 14.984252930964484 33.95094143869042 14.984907511338678 33.884766 14.992188 C 33.851287428191306 14.99636343216876 33.818041585491535 15.00223026705458 33.785156 15.009766 C 33.720815449256506 15.023727122538492 33.65801073227551 15.04400751930826 33.597656 15.070312 C 33.59700410069169 15.070962433864308 33.596353100070736 15.071613767818915 33.595703 15.072266 C 33.546869744527505 15.093861963941851 33.499844425066605 15.119334053783456 33.455078 15.148438 C 33.43228107687461 15.163794532255931 33.41012693308623 15.180084363489536 33.388672 15.197266 C 33.34696773225912 15.228659835299833 33.307785346011116 15.263270586506971 33.271484 15.300781 C 33.20299013442069 15.373236134679718 33.145716136500006 15.455526427439654 33.101562 15.544922 C 33.10156136436191 15.54557299984484 33.10156136436191 15.54622400015516 33.101562 15.546875 C 33.08708144060905 15.576166892029006 33.074045137110836 15.606150857301989 33.0625 15.636719 C 33.06249936436191 15.63736999984484 33.06249936436191 15.63802100015516 33.0625 15.638672 C 33.05120475076097 15.669423299933868 33.04142729559867 15.700711022958913 33.033203 15.732422 C 33.03320236436191 15.73307299984484 33.03320236436191 15.73372400015516 33.033203 15.734375 C 33.02448069040987 15.76590541381982 33.01731073636644 15.797844815784918 33.011719 15.830078 C 33.01171836436191 15.83072899984484 33.01171836436191 15.83138000015516 33.011719 15.832031 C 33.006867415856526 15.864403890423784 33.00360815905359 15.896995457247888 33.001953 15.929688 C 33.00195236436191 15.93033899984484 33.00195236436191 15.93099000015516 33.001953 15.931641 C 33.00052289719281 15.954398406155738 32.999871516474435 15.977198065411901 33 16 C 33 17.116666 32.116666 18 31 18 C 29.883334 18 29 17.116666 29 16 C 29.000354602542316 15.96675271394456 28.999050983573618 15.9335084277558 28.996094 15.900391 C 28.978606206367253 15.699844978970628 28.90100458021311 15.509244279671956 28.773438 15.353516 C 28.77343863628919 15.352864666822065 28.77343863628919 15.352213333177934 28.773438 15.351562 C 28.688320430877436 15.248436792570999 28.583387077304128 15.163427562341871 28.464844 15.101562 C 28.4356281530088 15.085756182281875 28.405642985592312 15.071415740254007 28.375 15.058594 C 28.219728369474133 14.995753531441768 28.05115991057384 14.972919625426002 27.884766 14.992188 C 27.851287428191306 14.99636343216876 27.818041585491535 15.00223026705458 27.785156 15.009766 C 27.72081544925651 15.023727122538492 27.65801073227551 15.04400751930826 27.597656 15.070312 C 27.59700410069169 15.070962433864308 27.596353100070736 15.071613767818915 27.595703 15.072266 C 27.546869744527505 15.093861963941851 27.499844425066605 15.119334053783456 27.455078 15.148438 C 27.44386980924652 15.155379784764452 27.432799978858732 15.162542518133463 27.421875 15.169922 C 27.410612584706527 15.178797581190377 27.399542358377147 15.18791435584178 27.388672 15.197266 C 27.267752941704238 15.289785879129443 27.16955425879736 15.408692783468105 27.101562 15.544922 C 27.101561364361913 15.54557299984484 27.101561364361913 15.54622400015516 27.101562 15.546875 C 27.087081440609047 15.576166892029006 27.074045137110836 15.606150857301989 27.0625 15.636719 C 27.062499364361912 15.63736999984484 27.062499364361912 15.63802100015516 27.0625 15.638672 C 27.051204750760967 15.669423299933868 27.041427295598677 15.700711022958913 27.033203 15.732422 C 27.033202364361912 15.73307299984484 27.033202364361912 15.73372400015516 27.033203 15.734375 C 27.024480690409867 15.76590541381982 27.017310736366436 15.797844815784918 27.011719 15.830078 C 27.01171836436191 15.83072899984484 27.01171836436191 15.83138000015516 27.011719 15.832031 C 27.006867415856526 15.864403890423784 27.00360815905359 15.896995457247888 27.001953 15.929688 C 27.001952364361912 15.93033899984484 27.001952364361912 15.93099000015516 27.001953 15.931641 C 27.000522897192806 15.954398406155738 26.999871516474432 15.977198065411901 27 16 C 27 17.116666 26.116666 18 25 18 C 23.883334 18 23 17.116666 23 16 C 23.000354602542316 15.96675271394456 22.999050983573618 15.9335084277558 22.996094 15.900391 C 22.978606206367253 15.699844978970628 22.90100458021311 15.509244279671956 22.773438 15.353516 C 22.77343863628919 15.352864666822065 22.77343863628919 15.352213333177934 22.773438 15.351562 C 22.688320430877436 15.248436792570999 22.583387077304128 15.163427562341871 22.464844 15.101562 C 22.4356281530088 15.085756182281875 22.405642985592312 15.071415740254007 22.375 15.058594 C 22.219728369474133 14.995753531441768 22.05115991057384 14.972919625426002 21.884766 14.992188 C 21.851287428191306 14.99636343216876 21.818041585491535 15.00223026705458 21.785156 15.009766 C 21.72081544925651 15.023727122538492 21.65801073227551 15.04400751930826 21.597656 15.070312 C 21.59700410069169 15.070962433864308 21.596353100070736 15.071613767818915 21.595703 15.072266 C 21.546869744527505 15.093861963941851 21.499844425066605 15.119334053783456 21.455078 15.148438 C 21.44386980924652 15.155379784764452 21.432799978858732 15.162542518133463 21.421875 15.169922 C 21.410612584706527 15.178797581190377 21.399542358377147 15.18791435584178 21.388672 15.197266 C 21.267752941704238 15.289785879129443 21.16955425879736 15.408692783468105 21.101562 15.544922 C 21.101561364361913 15.54557299984484 21.101561364361913 15.54622400015516 21.101562 15.546875 C 21.087081440609047 15.576166892029006 21.074045137110836 15.606150857301989 21.0625 15.636719 C 21.062499364361912 15.63736999984484 21.062499364361912 15.63802100015516 21.0625 15.638672 C 21.051204750760967 15.669423299933868 21.041427295598677 15.700711022958913 21.033203 15.732422 C 21.033202364361912 15.73307299984484 21.033202364361912 15.73372400015516 21.033203 15.734375 C 21.024480690409867 15.76590541381982 21.017310736366436 15.797844815784918 21.011719 15.830078 C 21.01171836436191 15.83072899984484 21.01171836436191 15.83138000015516 21.011719 15.832031 C 21.006867415856526 15.864403890423784 21.00360815905359 15.896995457247888 21.001953 15.929688 C 21.001952364361912 15.93033899984484 21.001952364361912 15.93099000015516 21.001953 15.931641 C 21.000522897192806 15.954398406155738 20.999871516474432 15.977198065411901 21 16 C 21 17.116666 20.116666 18 19 18 C 17.883334 18 17 17.116666 17 16 C 17.000354602542316 15.96675271394456 16.999050983573618 15.9335084277558 16.996094 15.900391 C 16.978606206367253 15.699844978970628 16.90100458021311 15.509244279671956 16.773438 15.353516 C 16.77343863628919 15.352864666822065 16.77343863628919 15.352213333177934 16.773438 15.351562 C 16.688320430877436 15.248436792570999 16.583387077304128 15.163427562341871 16.464844 15.101562 C 16.4356281530088 15.085756182281875 16.405642985592312 15.071415740254007 16.375 15.058594 C 16.219728369474133 14.995753531441768 16.05115991057384 14.972919625426002 15.884766 14.992188 C 15.85128742819131 14.99636343216876 15.818041585491533 15.00223026705458 15.785156 15.009766 C 15.72081544925651 15.023727122538492 15.65801073227551 15.04400751930826 15.597656 15.070312 C 15.597004100691692 15.070962433864308 15.596353100070734 15.071613767818915 15.595703 15.072266 C 15.546869744527505 15.093861963941851 15.499844425066605 15.119334053783456 15.455078 15.148438 C 15.443869809246523 15.155379784764452 15.432799978858734 15.162542518133463 15.421875 15.169922 C 15.410612584706525 15.178797581190377 15.399542358377147 15.18791435584178 15.388672 15.197266 C 15.267752941704236 15.289785879129443 15.169554258797358 15.408692783468105 15.101562 15.544922 C 15.101561364361912 15.54557299984484 15.101561364361912 15.54622400015516 15.101562 15.546875 C 15.087081440609046 15.576166892029006 15.074045137110835 15.60615085730199 15.0625 15.636719 C 15.062499364361912 15.63736999984484 15.062499364361912 15.63802100015516 15.0625 15.638672 C 15.051204750760967 15.669423299933868 15.041427295598675 15.700711022958913 15.033203 15.732422 C 15.033202364361912 15.73307299984484 15.033202364361912 15.73372400015516 15.033203 15.734375 C 15.024480690409865 15.76590541381982 15.017310736366436 15.797844815784918 15.011719 15.830078 C 15.011718364361911 15.83072899984484 15.011718364361911 15.83138000015516 15.011719 15.832031 C 15.006867415856526 15.864403890423784 15.003608159053591 15.896995457247888 15.001953 15.929688 C 15.001952364361912 15.93033899984484 15.001952364361912 15.93099000015516 15.001953 15.931641 C 15.000522897192807 15.954398406155738 14.999871516474434 15.977198065411901 15 16 C 15 17.116666 14.116666 18 13 18 C 11.883334 18 11 17.116666 11 16 C 11.000354602542318 15.96675271394456 10.999050983573616 15.9335084277558 10.996094 15.900391 C 10.978606206367253 15.699844978970628 10.901004580213113 15.509244279671957 10.773438 15.353516 C 10.77343863628919 15.352864666822065 10.77343863628919 15.352213333177934 10.773438 15.351562 C 10.688320430877438 15.248436792570999 10.583387077304128 15.163427562341871 10.464844 15.101562 C 10.435628153008798 15.085756182281875 10.40564298559231 15.071415740254007 10.375 15.058594 C 10.219728247107971 14.995753464572585 10.051159642137314 14.972919557401482 9.8847656 14.992188 C 9.851287229548849 14.996363452160253 9.818041587602405 15.00223028695832 9.7851562 15.009766 C 9.720815649256508 15.023727122538492 9.65801093227551 15.04400751930826 9.5976562 15.070312 C 9.597004267335368 15.070962433795241 9.596353233381015 15.071613767749882 9.5957031 15.072266 C 9.546869844527505 15.093861963941851 9.499844525066605 15.119334053783456 9.4550781 15.148438 C 9.44386987562036 15.15537978363766 9.432800011883533 15.162542517012616 9.421875 15.169922 C 9.410612551029763 15.178797580042417 9.399542291350153 15.187914354701388 9.3886719 15.197266 C 9.267753059943004 15.289785946437137 9.169554586591522 15.408692845519798 9.1015625 15.544922 C 9.101561864361912 15.54557299984484 9.101561864361912 15.54622400015516 9.1015625 15.546875 C 9.087081771083994 15.576166882487485 9.074045300655243 15.60615084790702 9.0625 15.636719 C 9.062499364361912 15.63736999984484 9.062499364361912 15.63802100015516 9.0625 15.638672 C 9.05120478453745 15.669423301729072 9.041427362755899 15.700711024731177 9.0332031 15.732422 C 9.033202464361912 15.73307299984484 9.033202464361912 15.73372400015516 9.0332031 15.734375 C 9.024480689425925 15.765905408651665 9.017310635250555 15.797844810668282 9.0117188 15.830078 C 9.011718164361913 15.83072899984484 9.011718164361913 15.83138000015516 9.0117188 15.832031 C 9.00686731628177 15.864403895394073 9.003608159601749 15.896995462194282 9.0019531 15.929688 C 9.001952464361912 15.93033899984484 9.001952464361912 15.93099000015516 9.0019531 15.931641 C 9.000522963836673 15.954398405014249 8.999871549765441 15.977198064271526 9 16 C 9 17.116666 8.1166661 18 7 18 C 5.8941692 18 5.0286341 17.12863 5.0117188 16.027344 C 5.0227438 15.979134 5.0345035 15.925102 5.0546875 15.845703 C 5.1059155 15.644185 5.1827609 15.361537 5.2753906 15.029297 C 5.4606502 14.364817 5.7096271 13.501509 5.9589844 12.650391 C 6.3520145 11.30888 6.5970162 10.497445 6.7460938 10 z M 12 25 L 24 25 L 24 44 L 12 44 L 12 25 z M 40 30 C 34.488997 30 30 34.488997 30 40 C 30 45.511003 34.488997 50 40 50 C 45.511003 50 50 45.511003 50 40 C 50 34.488997 45.511003 30 40 30 z M 40 32 C 44.430123 32 48 35.569877 48 40 C 48 44.430123 44.430123 48 40 48 C 35.569877 48 32 44.430123 32 40 C 32 35.569877 35.569877 32 40 32 z M 21 33 C 20.447715250169207 33 20 33.4477152501692 20 34 C 20 34.5522847498308 20.447715250169207 35 21 35 C 21.552284749830793 35 22 34.5522847498308 22 34 C 22 33.4477152501692 21.552284749830793 33 21 33 z M 29 33 C 28.447715250169207 33 28 33.4477152501692 28 34 C 28 34.5522847498308 28.447715250169207 35 29 35 C 29.552284749830793 35 30 34.5522847498308 30 34 C 30 33.4477152501692 29.552284749830793 33 29 33 z M 39.984375 34.035156 C 39.71915662509679 34.03929418472535 39.46644548393799 34.148623479191585 39.28183811287864 34.33909140171314 C 39.09723074181929 34.52955932423469 38.99585011336654 34.78556280793911 39 35.050781 L 39 39 L 35.050781 39 C 34.69014508342243 38.99489971045452 34.354699635428396 39.184375296169335 34.172893278513484 39.49587284971433 C 33.99108692159857 39.80737040325933 33.99108692159857 40.19262959674067 34.172893278513484 40.50412715028567 C 34.354699635428396 40.81562470383067 34.69014508342243 41.00510028954548 35.050781 41 L 39 41 L 39 44.949219 C 38.99489971045452 45.30985491657757 39.184375296169335 45.645300364571604 39.49587284971433 45.827106721486516 C 39.80737040325933 46.00891307840143 40.19262959674067 46.00891307840143 40.50412715028567 45.827106721486516 C 40.81562470383067 45.645300364571604 41.00510028954548 45.30985491657757 41 44.949219 L 41 41 L 44.949219 41 C 45.30985491657757 41.00510028954548 45.645300364571604 40.81562470383067 45.827106721486516 40.50412715028567 C 46.00891307840143 40.19262959674067 46.00891307840143 39.80737040325933 45.827106721486516 39.49587284971433 C 45.645300364571604 39.184375296169335 45.30985491657757 38.99489971045452 44.949219 39 L 41 39 L 41 35.050781 C 41.004234857258595 34.78014447369487 40.89859225807366 34.519348442212305 40.70719990793068 34.32795609206932 C 40.515807557787696 34.13656374192634 40.25501152630513 34.030921142741406 39.984375 34.035156 z" stroke-linecap="round" />
</g>
</svg>